<svg width="24" height="24" viewBox="0 0 24 24" fill="none" xmlns="http://www.w3.org/2000/svg">
<g id="mdi:court-hammer">
<path id="Vector" d="M2.29982 20.28L11.8998 10.68L10.4998 9.26003L9.77982 9.97003C9.68731 10.0627 9.57742 10.1363 9.45645 10.1865C9.33547 10.2366 9.20579 10.2625 9.07482 10.2625C8.94386 10.2625 8.81417 10.2366 8.6932 10.1865C8.57223 10.1363 8.46234 10.0627 8.36982 9.97003L7.65982 9.26003C7.56712 9.16751 7.49357 9.05762 7.44339 8.93665C7.39321 8.81568 7.36738 8.686 7.36738 8.55503C7.36738 8.42406 7.39321 8.29438 7.44339 8.1734C7.49357 8.05243 7.56712 7.94254 7.65982 7.85003L13.3198 2.19003C13.4123 2.09732 13.5222 2.02378 13.6432 1.97359C13.7642 1.92341 13.8939 1.89758 14.0248 1.89758C14.1558 1.89758 14.2855 1.92341 14.4064 1.97359C14.5274 2.02378 14.6373 2.09732 14.7298 2.19003L15.4398 2.90003C15.8298 3.29003 15.8298 3.92003 15.4398 4.31003L14.7298 5.00003L16.1498 6.43003C16.2423 6.33732 16.3522 6.26378 16.4732 6.21359C16.5942 6.16341 16.7239 6.13758 16.8548 6.13758C16.9858 6.13758 17.1155 6.16341 17.2364 6.21359C17.3574 6.26378 17.4673 6.33732 17.5598 6.43003C17.9498 6.82003 17.9498 7.46003 17.5598 7.85003L18.9698 9.26003L19.6798 8.55003C20.0698 8.16003 20.7098 8.16003 21.0998 8.55003L21.7998 9.26003C22.1898 9.65003 22.1898 10.29 21.7998 10.68L16.1498 16.33C15.7598 16.72 15.1198 16.72 14.7298 16.33L14.0298 15.63C13.9349 15.5378 13.8594 15.4274 13.8079 15.3054C13.7563 15.1835 13.7298 15.0524 13.7298 14.92C13.7298 14.7876 13.7563 14.6566 13.8079 14.5346C13.8594 14.4127 13.9349 14.3023 14.0298 14.21L14.7298 13.5L13.3198 12.09L3.70982 21.7C3.61731 21.7927 3.50742 21.8663 3.38645 21.9165C3.26548 21.9666 3.13579 21.9925 3.00482 21.9925C2.87386 21.9925 2.74417 21.9666 2.6232 21.9165C2.50223 21.8663 2.39234 21.7927 2.29982 21.7C1.90982 21.31 1.90982 20.67 2.29982 20.28ZM19.9998 19C20.5303 19 21.039 19.2107 21.414 19.5858C21.7891 19.9609 21.9998 20.4696 21.9998 21V22H11.9998V21C11.9998 20.4696 12.2105 19.9609 12.5856 19.5858C12.9607 19.2107 13.4694 19 13.9998 19H19.9998Z" fill="#ACACAC"/>
</g>
</svg>
