<svg width="90" height="90" viewBox="0 0 90 90" fill="none" xmlns="http://www.w3.org/2000/svg">
<g id="material-symbols:cancel">
<path id="Vector" d="M31.5 63.75L45 50.25L58.5 63.75L63.75 58.5L50.25 45L63.75 31.5L58.5 26.25L45 39.75L31.5 26.25L26.25 31.5L39.75 45L26.25 58.5L31.5 63.75ZM45 82.5C39.8125 82.5 34.9375 81.515 30.375 79.545C25.8125 77.575 21.8438 74.9038 18.4688 71.5312C15.0938 68.1563 12.4225 64.1875 10.455 59.625C8.4875 55.0625 7.5025 50.1875 7.5 45C7.5 39.8125 8.485 34.9375 10.455 30.375C12.425 25.8125 15.0963 21.8438 18.4688 18.4688C21.8438 15.0938 25.8125 12.4225 30.375 10.455C34.9375 8.4875 39.8125 7.5025 45 7.5C50.1875 7.5 55.0625 8.485 59.625 10.455C64.1875 12.425 68.1563 15.0963 71.5312 18.4688C74.9062 21.8438 77.5788 25.8125 79.5487 30.375C81.5187 34.9375 82.5025 39.8125 82.5 45C82.5 50.1875 81.515 55.0625 79.545 59.625C77.575 64.1875 74.9038 68.1563 71.5312 71.5312C68.1563 74.9062 64.1875 77.5788 59.625 79.5487C55.0625 81.5187 50.1875 82.5025 45 82.5Z" fill="#9A0000"/>
</g>
</svg>
